<?xml version="1.0" encoding="UTF-8"?>
<svg xmlns="http://www.w3.org/2000/svg" xmlns:xlink="http://www.w3.org/1999/xlink" width="865.737pt" height="400.558pt" viewBox="0 0 865.737 400.558" version="1.1">
<g id="surface1">
<path style=" stroke:none;fill-rule:nonzero;fill:rgb(12.626648%,33.805847%,68.193054%);fill-opacity:1;" d="M 388.214844 382.109375 C 384.449219 382.109375 381.367188 379.027344 381.367188 375.261719 L 381.367188 114.960938 C 381.367188 111.191406 384.449219 108.109375 388.214844 108.109375 C 391.984375 108.109375 395.066406 111.191406 395.066406 114.960938 L 395.066406 375.261719 C 395.066406 379.027344 391.984375 382.109375 388.214844 382.109375 "/>
<path style=" stroke:none;fill-rule:nonzero;fill:rgb(92.939758%,10.978699%,14.118958%);fill-opacity:1;" d="M 415.617188 382.109375 C 411.847656 382.109375 408.765625 379.027344 408.765625 375.261719 L 408.765625 114.960938 C 408.765625 111.191406 411.847656 108.109375 415.617188 108.109375 C 419.382813 108.109375 422.464844 111.191406 422.464844 114.960938 L 422.464844 375.261719 C 422.464844 379.027344 419.382813 382.109375 415.617188 382.109375 "/>
<path style=" stroke:none;fill-rule:nonzero;fill:rgb(13.729858%,12.159729%,12.548828%);fill-opacity:1;" d="M 473.183594 166.222656 L 473.070313 166.222656 L 464.972656 180.085938 L 475.179688 180.085938 Z M 483.054688 184.414063 C 483.332031 185.855469 484.054688 190.070313 484.773438 191.234375 C 485.328125 192.121094 486.882813 192.121094 487.824219 192.289063 L 487.324219 194.175781 C 484.609375 194.121094 481.945313 194.007813 479.226563 193.953125 C 476.675781 194.007813 474.125 194.121094 471.574219 194.175781 L 472.074219 192.289063 C 473.847656 192.179688 476.507813 192.347656 476.507813 189.847656 C 476.507813 188.738281 476.285156 187.410156 476.121094 186.300781 L 475.511719 182.527344 L 463.53125 182.527344 C 462.585938 184.191406 460.203125 188.183594 460.203125 189.847656 C 460.203125 192.066406 462.808594 192.066406 464.417969 192.289063 L 463.917969 194.175781 C 461.8125 194.121094 459.703125 194.007813 457.597656 193.953125 C 455.378906 194.007813 453.101563 194.121094 450.882813 194.175781 L 451.382813 192.289063 C 455.101563 191.957031 456.542969 189.183594 458.261719 186.242188 L 468.078125 169.328125 C 470.742188 165.222656 473.402344 161.175781 476.066406 156.957031 L 478.617188 156.957031 Z M 483.054688 184.414063 "/>
<path style=" stroke:none;fill-rule:nonzero;fill:rgb(13.729858%,12.159729%,12.548828%);fill-opacity:1;" d="M 491.761719 177.3125 C 491.761719 172.488281 496.367188 170.160156 500.636719 170.160156 C 503.355469 170.160156 507.292969 171.101563 507.292969 174.542969 C 507.292969 175.871094 506.292969 176.871094 504.964844 176.871094 C 503.300781 176.871094 502.632813 175.375 502.578125 173.984375 C 502.523438 172.65625 502.132813 172.042969 500.636719 172.042969 C 498.863281 172.042969 497.640625 172.933594 497.640625 174.652344 C 497.640625 176.703125 499.363281 178.199219 500.636719 179.476563 C 502.800781 181.695313 504.628906 183.914063 504.628906 187.1875 C 504.628906 191.957031 499.75 194.785156 495.480469 194.785156 C 492.371094 194.785156 487.992188 193.289063 487.992188 189.460938 C 487.992188 187.964844 488.878906 186.855469 490.429688 186.855469 C 491.816406 186.855469 492.984375 187.796875 492.984375 189.292969 L 492.925781 190.238281 L 492.871094 191.125 C 492.871094 192.34375 494.148438 192.898438 495.144531 192.898438 C 497.03125 192.898438 498.472656 191.292969 498.472656 189.460938 C 498.472656 187.574219 497.421875 186.519531 496.253906 185.191406 C 494.367188 182.972656 491.761719 180.363281 491.761719 177.3125 "/>
<path style=" stroke:none;fill-rule:nonzero;fill:rgb(13.729858%,12.159729%,12.548828%);fill-opacity:1;" d="M 510.621094 177.3125 C 510.621094 172.488281 515.222656 170.160156 519.496094 170.160156 C 522.214844 170.160156 526.152344 171.101563 526.152344 174.542969 C 526.152344 175.871094 525.152344 176.871094 523.820313 176.871094 C 522.15625 176.871094 521.492188 175.375 521.4375 173.984375 C 521.382813 172.65625 520.992188 172.042969 519.496094 172.042969 C 517.71875 172.042969 516.5 172.933594 516.5 174.652344 C 516.5 176.703125 518.21875 178.199219 519.496094 179.476563 C 521.660156 181.695313 523.488281 183.914063 523.488281 187.1875 C 523.488281 191.957031 518.609375 194.785156 514.335938 194.785156 C 511.230469 194.785156 506.847656 193.289063 506.847656 189.460938 C 506.847656 187.964844 507.738281 186.855469 509.289063 186.855469 C 510.675781 186.855469 511.839844 187.796875 511.839844 189.292969 L 511.785156 190.238281 L 511.730469 191.125 C 511.730469 192.34375 513.007813 192.898438 514.003906 192.898438 C 515.890625 192.898438 517.332031 191.292969 517.332031 189.460938 C 517.332031 187.574219 516.277344 186.519531 515.113281 185.191406 C 513.226563 182.972656 510.621094 180.363281 510.621094 177.3125 "/>
<path style=" stroke:none;fill-rule:nonzero;fill:rgb(13.729858%,12.159729%,12.548828%);fill-opacity:1;" d="M 535.246094 179.089844 C 534.25 181.863281 533.085938 186.078125 533.085938 189.074219 C 533.085938 190.792969 533.75 192.898438 535.855469 192.898438 C 540.960938 192.898438 543.789063 179.476563 543.789063 175.539063 C 543.789063 173.765625 542.957031 172.046875 540.960938 172.046875 C 537.6875 172.046875 536.078125 176.535156 535.246094 179.089844 M 526.929688 185.246094 C 526.929688 177.480469 532.75 170.160156 540.738281 170.160156 C 546.394531 170.160156 549.945313 174.320313 549.945313 179.753906 C 549.945313 187.242188 543.902344 194.785156 536.136719 194.785156 C 530.476563 194.785156 526.929688 190.792969 526.929688 185.246094 "/>
<path style=" stroke:none;fill-rule:nonzero;fill:rgb(13.729858%,12.159729%,12.548828%);fill-opacity:1;" d="M 571.410156 187.464844 C 569.25 191.402344 565.367188 194.785156 560.707031 194.785156 C 555.382813 194.785156 552.441406 191.070313 552.441406 186.023438 C 552.441406 178.089844 558.378906 170.160156 566.699219 170.160156 C 569.582031 170.160156 573.351563 171.601563 573.351563 175.039063 C 573.351563 176.757813 572.078125 178.367188 570.300781 178.367188 C 568.582031 178.367188 567.195313 177.203125 567.195313 175.484375 C 567.195313 173.875 568.195313 173.542969 568.195313 172.765625 C 568.195313 172.046875 567.308594 171.824219 566.699219 171.824219 C 561.707031 171.824219 559.097656 183.304688 559.097656 187.1875 C 559.097656 189.460938 560.261719 191.734375 562.871094 191.734375 C 566.085938 191.734375 568.527344 189.074219 570.136719 186.519531 Z M 571.410156 187.464844 "/>
<path style=" stroke:none;fill-rule:nonzero;fill:rgb(13.729858%,12.159729%,12.548828%);fill-opacity:1;" d="M 581.394531 159.785156 C 581.394531 157.789063 583.003906 156.238281 585 156.238281 C 586.941406 156.238281 588.496094 157.847656 588.496094 159.785156 C 588.496094 161.671875 586.941406 163.335938 585 163.335938 C 583.003906 163.335938 581.394531 161.785156 581.394531 159.785156 M 588.328125 186.632813 C 586.609375 190.125 583.394531 194.785156 579.066406 194.785156 C 576.570313 194.785156 575.074219 193.066406 575.074219 190.570313 C 575.074219 188.574219 575.90625 186.1875 576.570313 184.304688 L 577.789063 180.699219 C 578.234375 179.476563 579.511719 176.039063 579.511719 174.875 C 579.511719 174.097656 579.066406 173.488281 578.289063 173.488281 C 576.679688 173.488281 574.519531 177.035156 573.742188 178.367188 L 572.6875 177.757813 C 574.628906 174.429688 577.570313 170.160156 581.839844 170.160156 C 584.113281 170.160156 585.890625 171.546875 585.890625 173.984375 C 585.890625 175.816406 585.058594 178.089844 584.5 179.867188 L 582.285156 186.578125 C 582.003906 187.410156 581.453125 188.851563 581.453125 189.738281 C 581.453125 190.402344 582.003906 191.125 582.726563 191.125 C 584.667969 191.125 586.332031 187.519531 587.273438 186.132813 Z M 588.328125 186.632813 "/>
<path style=" stroke:none;fill-rule:nonzero;fill:rgb(13.729858%,12.159729%,12.548828%);fill-opacity:1;" d="M 596.8125 187.851563 C 596.8125 189.460938 597.589844 191.457031 599.476563 191.457031 C 604.523438 191.457031 607.90625 180.363281 607.90625 176.371094 C 607.90625 174.597656 606.910156 173.210938 604.96875 173.210938 C 600.085938 173.210938 596.8125 183.914063 596.8125 187.851563 M 610.457031 170.214844 L 616.226563 170.214844 L 612.066406 185.078125 C 611.789063 186.023438 611.179688 188.296875 611.179688 189.183594 C 611.179688 189.851563 611.457031 191.125 612.234375 191.125 C 613.953125 191.125 615.5625 187.410156 616.335938 186.132813 L 617.503906 186.632813 C 616.003906 190.125 613.066406 194.785156 608.851563 194.785156 C 606.742188 194.785156 605.300781 193.121094 605.300781 191.070313 L 605.46875 189.074219 L 605.355469 188.960938 C 603.691406 192.066406 600.808594 194.785156 597.035156 194.785156 C 592.375 194.785156 590.160156 191.070313 590.160156 186.742188 C 590.160156 179.585938 595.761719 170.160156 603.746094 170.160156 C 606.355469 170.160156 608.242188 171.433594 609.238281 173.765625 Z M 610.457031 170.214844 "/>
<path style=" stroke:none;fill-rule:nonzero;fill:rgb(13.729858%,12.159729%,12.548828%);fill-opacity:1;" d="M 630.425781 171.269531 L 635.695313 171.269531 L 635.085938 173.488281 L 629.816406 173.488281 L 627.265625 183.082031 C 626.820313 184.636719 625.878906 187.964844 625.878906 189.515625 C 625.878906 190.347656 626.101563 191.457031 627.15625 191.457031 C 629.039063 191.457031 630.925781 188.074219 631.703125 186.742188 L 632.148438 185.964844 L 633.199219 186.519531 C 631.480469 189.960938 628.484375 194.785156 624.214844 194.785156 C 621.71875 194.785156 619.722656 192.957031 619.722656 190.460938 C 619.722656 188.074219 620.777344 184.46875 621.386719 182.140625 L 623.714844 173.488281 L 619.335938 173.488281 L 619.832031 171.269531 L 624.269531 171.269531 L 627.097656 162.558594 L 632.757813 162.558594 Z M 630.425781 171.269531 "/>
<path style=" stroke:none;fill-rule:nonzero;fill:rgb(13.729858%,12.159729%,12.548828%);fill-opacity:1;" d="M 642.40625 159.785156 C 642.40625 157.789063 644.015625 156.238281 646.011719 156.238281 C 647.953125 156.238281 649.507813 157.847656 649.507813 159.785156 C 649.507813 161.671875 647.953125 163.335938 646.011719 163.335938 C 644.015625 163.335938 642.40625 161.785156 642.40625 159.785156 M 649.339844 186.632813 C 647.621094 190.125 644.40625 194.785156 640.078125 194.785156 C 637.582031 194.785156 636.085938 193.066406 636.085938 190.570313 C 636.085938 188.574219 636.917969 186.1875 637.582031 184.304688 L 638.800781 180.699219 C 639.246094 179.476563 640.523438 176.039063 640.523438 174.875 C 640.523438 174.097656 640.078125 173.488281 639.300781 173.488281 C 637.691406 173.488281 635.53125 177.035156 634.753906 178.367188 L 633.699219 177.757813 C 635.640625 174.429688 638.582031 170.160156 642.851563 170.160156 C 645.125 170.160156 646.902344 171.546875 646.902344 173.984375 C 646.902344 175.816406 646.070313 178.089844 645.511719 179.867188 L 643.296875 186.578125 C 643.015625 187.410156 642.464844 188.851563 642.464844 189.738281 C 642.464844 190.402344 643.015625 191.125 643.738281 191.125 C 645.679688 191.125 647.34375 187.519531 648.285156 186.132813 Z M 649.339844 186.632813 "/>
<path style=" stroke:none;fill-rule:nonzero;fill:rgb(13.729858%,12.159729%,12.548828%);fill-opacity:1;" d="M 659.492188 179.089844 C 658.492188 181.863281 657.328125 186.078125 657.328125 189.074219 C 657.328125 190.792969 657.992188 192.898438 660.101563 192.898438 C 665.203125 192.898438 668.03125 179.476563 668.03125 175.539063 C 668.03125 173.765625 667.199219 172.046875 665.203125 172.046875 C 661.929688 172.046875 660.324219 176.535156 659.492188 179.089844 M 651.171875 185.246094 C 651.171875 177.480469 656.996094 170.160156 664.980469 170.160156 C 670.640625 170.160156 674.191406 174.320313 674.191406 179.753906 C 674.191406 187.242188 668.144531 194.785156 660.378906 194.785156 C 654.71875 194.785156 651.171875 190.792969 651.171875 185.246094 "/>
<path style=" stroke:none;fill-rule:nonzero;fill:rgb(13.729858%,12.159729%,12.548828%);fill-opacity:1;" d="M 679.070313 185.246094 C 679.789063 182.75 681.34375 177.8125 681.34375 175.316406 C 681.34375 174.707031 681.066406 173.820313 680.289063 173.820313 C 678.792969 173.820313 677.183594 177.257813 676.574219 178.480469 L 675.464844 178.035156 C 676.960938 174.484375 679.457031 170.160156 683.785156 170.160156 C 686.222656 170.160156 687.335938 171.601563 687.335938 173.984375 L 687.054688 177.148438 L 686.890625 178.203125 L 687 178.3125 C 688.832031 174.375 692.214844 170.160156 696.984375 170.160156 C 699.8125 170.160156 701.476563 171.710938 701.476563 174.484375 C 701.476563 176.316406 700.703125 178.976563 700.148438 180.753906 L 699.09375 183.96875 C 698.703125 185.136719 697.261719 188.851563 697.261719 189.960938 C 697.261719 190.457031 697.652344 191.179688 698.207031 191.179688 C 699.757813 191.179688 701.589844 187.574219 702.253906 186.519531 L 703.363281 187.132813 C 701.753906 190.402344 698.980469 194.785156 694.878906 194.785156 C 692.546875 194.785156 690.882813 193.175781 690.882813 190.847656 C 690.882813 189.292969 691.773438 186.242188 692.269531 184.691406 L 693.378906 181.363281 C 693.824219 179.976563 695.210938 176.148438 695.210938 174.875 C 695.210938 174.152344 694.710938 173.488281 693.988281 173.488281 C 689.164063 173.597656 686.167969 183.582031 684.949219 187.019531 L 682.507813 194.066406 L 676.683594 194.066406 Z M 679.070313 185.246094 "/>
<path style=" stroke:none;fill-rule:nonzero;fill:rgb(13.729858%,12.159729%,12.548828%);fill-opacity:1;" d="M 473.183594 232.78125 L 473.070313 232.78125 L 464.972656 246.648438 L 475.179688 246.648438 Z M 483.054688 250.972656 C 483.332031 252.414063 484.054688 256.632813 484.773438 257.796875 C 485.328125 258.683594 486.882813 258.683594 487.824219 258.851563 L 487.324219 260.734375 C 484.609375 260.679688 481.945313 260.570313 479.226563 260.515625 C 476.675781 260.570313 474.125 260.679688 471.574219 260.734375 L 472.074219 258.851563 C 473.847656 258.738281 476.507813 258.90625 476.507813 256.410156 C 476.507813 255.300781 476.285156 253.96875 476.121094 252.859375 L 475.511719 249.089844 L 463.53125 249.089844 C 462.585938 250.75 460.203125 254.746094 460.203125 256.410156 C 460.203125 258.628906 462.808594 258.628906 464.417969 258.851563 L 463.917969 260.734375 C 461.8125 260.679688 459.703125 260.570313 457.597656 260.515625 C 455.378906 260.570313 453.101563 260.679688 450.882813 260.734375 L 451.382813 258.851563 C 455.101563 258.515625 456.542969 255.742188 458.261719 252.804688 L 468.078125 235.886719 C 470.742188 231.78125 473.402344 227.734375 476.066406 223.519531 L 478.617188 223.519531 Z M 483.054688 250.972656 "/>
<path style=" stroke:none;fill-rule:nonzero;fill:rgb(13.729858%,12.159729%,12.548828%);fill-opacity:1;" d="M 498.40625 261.347656 C 495.078125 261.347656 491.695313 259.570313 491.695313 255.800781 C 491.695313 250.695313 496.964844 245.761719 500.289063 242.375 L 500.179688 242.265625 C 499.460938 242.488281 498.460938 242.820313 497.683594 242.820313 C 496.074219 242.820313 494.800781 242.15625 493.855469 242.15625 C 492.136719 242.15625 492.414063 243.875 491.75 243.875 C 491.082031 243.875 490.863281 242.433594 490.863281 241.933594 C 490.863281 239.601563 492.304688 237.164063 494.855469 237.164063 C 497.628906 237.164063 498.40625 239.714844 500.402344 239.714844 C 501.566406 239.714844 501.898438 238.9375 502.175781 238.21875 C 502.507813 237.441406 502.785156 236.71875 503.785156 236.71875 C 504.507813 236.71875 504.894531 237.273438 504.894531 237.9375 C 504.894531 239.492188 498.90625 247.203125 498.90625 253.523438 C 498.90625 255.578125 500.179688 257.683594 502.398438 257.683594 C 506.722656 257.683594 509.996094 250.972656 509.832031 245.148438 C 509.777344 242.988281 509.332031 240.824219 509.332031 239.546875 C 509.332031 238.273438 510.050781 236.71875 511.773438 236.71875 C 514.101563 236.71875 514.878906 238.828125 514.878906 240.824219 C 514.878906 248.921875 507.554688 261.347656 498.40625 261.347656 "/>
<path style=" stroke:none;fill-rule:nonzero;fill:rgb(13.729858%,12.159729%,12.548828%);fill-opacity:1;" d="M 532.628906 240.65625 C 532.628906 239.382813 531.90625 238.382813 530.574219 238.382813 C 526.582031 238.382813 524.53125 246.148438 523.753906 249.199219 C 527.46875 248.089844 532.628906 245.039063 532.628906 240.65625 M 535.289063 254.136719 C 532.738281 257.90625 529.1875 261.347656 524.417969 261.347656 C 519.371094 261.347656 516.433594 258.183594 516.433594 253.082031 C 516.433594 244.816406 522.53125 236.71875 531.128906 236.71875 C 534.015625 236.71875 537.898438 237.882813 537.898438 241.378906 C 537.898438 247.644531 528.078125 249.753906 523.253906 250.972656 C 523.085938 252.027344 522.921875 253.082031 522.921875 254.136719 C 522.921875 256.300781 524.085938 258.292969 526.472656 258.292969 C 529.578125 258.292969 532.074219 255.300781 533.902344 253.082031 Z M 535.289063 254.136719 "/>
<path style=" stroke:none;fill-rule:nonzero;fill:rgb(13.729858%,12.159729%,12.548828%);fill-opacity:1;" d="M 541.003906 251.804688 C 541.722656 249.308594 543.277344 244.371094 543.277344 241.875 C 543.277344 241.265625 543 240.378906 542.222656 240.378906 C 540.726563 240.378906 539.117188 243.820313 538.507813 245.039063 L 537.398438 244.59375 C 538.894531 241.042969 541.390625 236.71875 545.71875 236.71875 C 548.15625 236.71875 549.269531 238.160156 549.269531 240.546875 L 548.988281 243.707031 L 548.824219 244.761719 L 548.933594 244.871094 C 550.765625 240.933594 554.148438 236.71875 558.917969 236.71875 C 561.746094 236.71875 563.410156 238.273438 563.410156 241.042969 C 563.410156 242.875 562.636719 245.539063 562.082031 247.3125 L 561.027344 250.53125 C 560.636719 251.695313 559.195313 255.410156 559.195313 256.519531 C 559.195313 257.019531 559.585938 257.742188 560.140625 257.742188 C 561.691406 257.742188 563.523438 254.136719 564.1875 253.082031 L 565.296875 253.691406 C 563.6875 256.964844 560.914063 261.347656 556.8125 261.347656 C 554.480469 261.347656 552.816406 259.738281 552.816406 257.40625 C 552.816406 255.855469 553.707031 252.804688 554.203125 251.25 L 555.3125 247.921875 C 555.757813 246.535156 557.144531 242.707031 557.144531 241.433594 C 557.144531 240.710938 556.644531 240.046875 555.921875 240.046875 C 551.097656 240.15625 548.101563 250.140625 546.882813 253.582031 L 544.441406 260.625 L 538.617188 260.625 Z M 541.003906 251.804688 "/>
<path style=" stroke:none;fill-rule:nonzero;fill:rgb(13.729858%,12.159729%,12.548828%);fill-opacity:1;" d="M 574.226563 226.347656 C 574.226563 224.351563 575.835938 222.796875 577.832031 222.796875 C 579.773438 222.796875 581.328125 224.40625 581.328125 226.347656 C 581.328125 228.234375 579.773438 229.898438 577.832031 229.898438 C 575.835938 229.898438 574.226563 228.34375 574.226563 226.347656 M 581.160156 253.191406 C 579.441406 256.6875 576.226563 261.347656 571.898438 261.347656 C 569.402344 261.347656 567.90625 259.625 567.90625 257.128906 C 567.90625 255.132813 568.738281 252.75 569.402344 250.863281 L 570.621094 247.257813 C 571.066406 246.035156 572.34375 242.597656 572.34375 241.433594 C 572.34375 240.65625 571.898438 240.046875 571.121094 240.046875 C 569.511719 240.046875 567.351563 243.597656 566.574219 244.929688 L 565.519531 244.316406 C 567.460938 240.988281 570.402344 236.71875 574.671875 236.71875 C 576.945313 236.71875 578.722656 238.105469 578.722656 240.546875 C 578.722656 242.375 577.890625 244.652344 577.332031 246.425781 L 575.117188 253.136719 C 574.835938 253.96875 574.285156 255.410156 574.285156 256.296875 C 574.285156 256.964844 574.835938 257.683594 575.558594 257.683594 C 577.5 257.683594 579.164063 254.078125 580.105469 252.691406 Z M 581.160156 253.191406 "/>
<path style=" stroke:none;fill-rule:nonzero;fill:rgb(13.729858%,12.159729%,12.548828%);fill-opacity:1;" d="M 588.925781 260.625 L 582.714844 260.625 L 584.878906 253.691406 C 585.820313 250.640625 587.261719 245.039063 587.261719 241.875 C 587.261719 241.269531 587.152344 240.492188 586.429688 240.492188 C 584.878906 240.492188 583.324219 244.09375 582.769531 245.316406 L 581.550781 244.761719 C 583.101563 241.378906 585.710938 236.71875 589.980469 236.71875 C 592.253906 236.71875 593.363281 238.550781 593.363281 240.601563 C 593.363281 242.210938 593.03125 243.761719 592.863281 245.207031 L 592.976563 245.316406 C 594.527344 241.988281 596.800781 236.71875 601.183594 236.71875 C 603.402344 236.71875 605.121094 238.160156 605.121094 240.4375 C 605.121094 242.433594 603.734375 243.707031 601.792969 243.707031 C 599.410156 243.707031 599.519531 241.433594 598.1875 241.433594 C 595.195313 241.433594 591.753906 252.195313 590.921875 254.691406 Z M 588.925781 260.625 "/>
<path style=" stroke:none;fill-rule:nonzero;fill:rgb(13.729858%,12.159729%,12.548828%);fill-opacity:1;" d="M 470.628906 306.605469 L 472.292969 306.605469 C 475.734375 306.605469 478.394531 306.050781 480.058594 301.335938 L 482.167969 301.335938 L 478.617188 315.59375 L 476.507813 315.59375 C 477.121094 311.101563 476.730469 309.046875 471.796875 309.046875 L 469.964844 309.046875 L 467.636719 317.589844 C 467.246094 318.921875 466.304688 321.972656 466.304688 323.300781 C 466.304688 325.855469 468.746094 325.300781 471.019531 325.410156 L 470.519531 327.296875 C 467.523438 327.238281 464.472656 327.128906 461.480469 327.074219 C 458.816406 327.128906 456.097656 327.238281 453.492188 327.296875 L 453.988281 325.410156 C 457.875 325.410156 458.261719 323.523438 459.148438 320.140625 L 464.640625 300.394531 C 465.027344 299.0625 465.972656 296.011719 465.972656 294.683594 C 465.972656 292.019531 463.53125 292.574219 461.257813 292.464844 L 461.753906 290.578125 C 464.640625 290.632813 467.523438 290.742188 470.40625 290.800781 C 476.507813 290.742188 482.667969 290.632813 488.769531 290.578125 L 489.378906 299.894531 L 487.214844 299.894531 C 485.9375 294.460938 483.332031 293.019531 478.0625 293.019531 C 474.234375 293.019531 474.457031 292.851563 473.460938 296.457031 Z M 470.628906 306.605469 "/>
<path style=" stroke:none;fill-rule:nonzero;fill:rgb(13.729858%,12.159729%,12.548828%);fill-opacity:1;" d="M 491.820313 327.183594 L 485.605469 327.183594 L 487.769531 320.25 C 488.710938 317.199219 490.15625 311.597656 490.15625 308.4375 C 490.15625 307.828125 490.042969 307.050781 489.324219 307.050781 C 487.769531 307.050781 486.214844 310.65625 485.664063 311.875 L 484.441406 311.320313 C 485.996094 307.9375 488.601563 303.277344 492.871094 303.277344 C 495.148438 303.277344 496.253906 305.109375 496.253906 307.160156 C 496.253906 308.769531 495.921875 310.324219 495.757813 311.765625 L 495.867188 311.875 C 497.421875 308.546875 499.695313 303.277344 504.078125 303.277344 C 506.296875 303.277344 508.015625 304.722656 508.015625 306.996094 C 508.015625 308.992188 506.628906 310.269531 504.6875 310.269531 C 502.300781 310.269531 502.414063 307.992188 501.082031 307.992188 C 498.085938 307.992188 494.648438 318.753906 493.816406 321.25 Z M 491.820313 327.183594 "/>
<path style=" stroke:none;fill-rule:nonzero;fill:rgb(13.729858%,12.159729%,12.548828%);fill-opacity:1;" d="M 513.617188 320.972656 C 513.617188 322.582031 514.390625 324.578125 516.277344 324.578125 C 521.324219 324.578125 524.710938 313.484375 524.710938 309.492188 C 524.710938 307.71875 523.710938 306.328125 521.769531 306.328125 C 516.886719 306.328125 513.617188 317.035156 513.617188 320.972656 M 527.261719 303.335938 L 533.027344 303.335938 L 528.871094 318.199219 C 528.59375 319.140625 527.980469 321.414063 527.980469 322.304688 C 527.980469 322.96875 528.257813 324.246094 529.035156 324.246094 C 530.753906 324.246094 532.363281 320.527344 533.140625 319.253906 L 534.304688 319.75 C 532.804688 323.246094 529.867188 327.90625 525.652344 327.90625 C 523.542969 327.90625 522.101563 326.242188 522.101563 324.191406 L 522.269531 322.191406 L 522.15625 322.082031 C 520.492188 325.1875 517.609375 327.90625 513.839844 327.90625 C 509.179688 327.90625 506.960938 324.191406 506.960938 319.863281 C 506.960938 312.707031 512.5625 303.277344 520.550781 303.277344 C 523.15625 303.277344 525.042969 304.554688 526.039063 306.886719 Z M 527.261719 303.335938 "/>
<path style=" stroke:none;fill-rule:nonzero;fill:rgb(13.729858%,12.159729%,12.548828%);fill-opacity:1;" d="M 538.1875 318.367188 C 538.90625 315.871094 540.460938 310.933594 540.460938 308.4375 C 540.460938 307.828125 540.183594 306.941406 539.40625 306.941406 C 537.910156 306.941406 536.300781 310.378906 535.691406 311.597656 L 534.582031 311.15625 C 536.078125 307.605469 538.574219 303.277344 542.902344 303.277344 C 545.34375 303.277344 546.453125 304.722656 546.453125 307.105469 L 546.171875 310.269531 L 546.007813 311.320313 L 546.117188 311.433594 C 547.949219 307.492188 551.332031 303.277344 556.101563 303.277344 C 558.929688 303.277344 560.59375 304.832031 560.59375 307.605469 C 560.59375 309.4375 559.820313 312.097656 559.265625 313.871094 L 558.210938 317.089844 C 557.820313 318.253906 556.378906 321.972656 556.378906 323.078125 C 556.378906 323.578125 556.769531 324.300781 557.324219 324.300781 C 558.875 324.300781 560.707031 320.695313 561.371094 319.640625 L 562.480469 320.25 C 560.871094 323.523438 558.097656 327.90625 553.996094 327.90625 C 551.664063 327.90625 550 326.296875 550 323.96875 C 550 322.414063 550.890625 319.363281 551.386719 317.8125 L 552.496094 314.484375 C 552.941406 313.097656 554.328125 309.269531 554.328125 307.992188 C 554.328125 307.273438 553.828125 306.605469 553.105469 306.605469 C 548.28125 306.71875 545.285156 316.703125 544.066406 320.140625 L 541.625 327.183594 L 535.800781 327.183594 Z M 538.1875 318.367188 "/>
<path style=" stroke:none;fill-rule:nonzero;fill:rgb(13.729858%,12.159729%,12.548828%);fill-opacity:1;" d="M 582.503906 320.585938 C 580.339844 324.523438 576.457031 327.90625 571.800781 327.90625 C 566.476563 327.90625 563.535156 324.1875 563.535156 319.140625 C 563.535156 311.210938 569.46875 303.277344 577.789063 303.277344 C 580.675781 303.277344 584.445313 304.722656 584.445313 308.160156 C 584.445313 309.878906 583.171875 311.488281 581.394531 311.488281 C 579.675781 311.488281 578.289063 310.324219 578.289063 308.605469 C 578.289063 306.996094 579.289063 306.664063 579.289063 305.886719 C 579.289063 305.164063 578.398438 304.941406 577.789063 304.941406 C 572.796875 304.941406 570.191406 316.425781 570.191406 320.308594 C 570.191406 322.582031 571.355469 324.855469 573.964844 324.855469 C 577.179688 324.855469 579.621094 322.191406 581.230469 319.640625 Z M 582.503906 320.585938 "/>
<path style=" stroke:none;fill-rule:nonzero;fill:rgb(13.729858%,12.159729%,12.548828%);fill-opacity:1;" d="M 592.933594 312.210938 C 591.933594 314.980469 590.769531 319.195313 590.769531 322.191406 C 590.769531 323.914063 591.433594 326.019531 593.542969 326.019531 C 598.644531 326.019531 601.472656 312.597656 601.472656 308.660156 C 601.472656 306.882813 600.640625 305.164063 598.644531 305.164063 C 595.371094 305.164063 593.765625 309.65625 592.933594 312.210938 M 584.613281 318.367188 C 584.613281 310.601563 590.4375 303.277344 598.421875 303.277344 C 604.082031 303.277344 607.632813 307.4375 607.632813 312.875 C 607.632813 320.363281 601.585938 327.90625 593.820313 327.90625 C 588.160156 327.90625 584.613281 323.914063 584.613281 318.367188 "/>
<path style=" stroke:none;fill-rule:nonzero;fill:rgb(13.729858%,12.159729%,12.548828%);fill-opacity:1;" d="M 619.890625 317.8125 L 607.910156 317.8125 L 609.296875 313.261719 L 621.277344 313.261719 Z M 619.890625 317.8125 "/>
<path style=" stroke:none;fill-rule:nonzero;fill:rgb(13.729858%,12.159729%,12.548828%);fill-opacity:1;" d="M 635.308594 309.824219 C 634.640625 312.320313 633.589844 315.703125 633.589844 318.253906 C 633.589844 322.414063 637.359375 324.578125 641.132813 324.578125 C 649.0625 324.578125 651.835938 316.757813 654.109375 307.9375 L 656.050781 300.339844 C 656.382813 298.953125 656.773438 297.398438 656.773438 296.011719 C 656.773438 293.183594 654.554688 292.742188 652.28125 292.464844 L 652.777344 290.578125 C 654.941406 290.632813 657.050781 290.742188 659.214844 290.800781 C 661.15625 290.742188 663.152344 290.632813 665.09375 290.578125 L 665.09375 292.464844 C 661.433594 292.851563 660.488281 295.015625 659.601563 298.175781 L 656.496094 309.214844 C 653.554688 319.75 651.335938 327.90625 638.46875 327.90625 C 632.257813 327.90625 625.824219 324.132813 625.824219 317.367188 C 625.824219 315.148438 626.988281 311.488281 627.597656 309.324219 L 630.09375 300.394531 C 630.480469 299.0625 631.367188 296.070313 631.367188 294.683594 C 631.367188 292.296875 628.984375 292.464844 627.207031 292.464844 L 627.765625 290.578125 C 630.480469 290.632813 633.144531 290.742188 635.863281 290.800781 C 638.691406 290.742188 641.519531 290.632813 644.347656 290.578125 L 643.792969 292.464844 C 639.964844 292.464844 639.578125 294.515625 638.636719 297.84375 Z M 635.308594 309.824219 "/>
<path style=" stroke:none;fill-rule:nonzero;fill:rgb(13.729858%,12.159729%,12.548828%);fill-opacity:1;" d="M 678.628906 308.492188 C 678.628906 307.273438 677.738281 306.328125 676.519531 306.328125 C 672.46875 306.328125 669.699219 312.875 668.753906 316.203125 C 671.972656 315.316406 678.628906 312.265625 678.628906 308.492188 M 668.199219 318.421875 L 665.8125 327.183594 L 659.714844 327.183594 L 666.535156 301.78125 C 666.925781 300.394531 668.253906 295.789063 668.253906 294.347656 C 668.253906 292.460938 665.371094 292.460938 664.039063 292.460938 L 664.484375 290.796875 L 675.742188 290.078125 L 671.140625 307.9375 L 671.25 308.046875 C 673.136719 305.277344 676.242188 303.277344 679.734375 303.277344 C 682.289063 303.277344 684.507813 304.722656 684.507813 307.4375 C 684.507813 311.65625 678.515625 313.984375 675.300781 315.535156 L 675.300781 315.648438 C 678.074219 315.648438 679.734375 317.367188 679.734375 320.140625 C 679.734375 321.082031 679.570313 321.972656 679.570313 322.859375 C 679.570313 323.46875 679.847656 324.578125 680.679688 324.578125 C 682.398438 324.578125 683.621094 320.917969 684.230469 319.585938 L 685.226563 319.972656 C 684.175781 323.578125 681.957031 327.90625 677.683594 327.90625 C 675.132813 327.90625 673.300781 326.074219 673.300781 323.523438 C 673.300781 321.640625 674.300781 319.417969 674.300781 317.921875 C 674.300781 317.035156 673.96875 316.644531 673.246094 316.203125 Z M 668.199219 318.421875 "/>
<path style=" stroke:none;fill-rule:nonzero;fill:rgb(13.729858%,12.159729%,12.548828%);fill-opacity:1;" d="M 692.605469 327.183594 L 686.390625 327.183594 L 688.554688 320.25 C 689.496094 317.199219 690.941406 311.597656 690.941406 308.4375 C 690.941406 307.828125 690.828125 307.050781 690.109375 307.050781 C 688.554688 307.050781 687 310.65625 686.449219 311.875 L 685.226563 311.320313 C 686.78125 307.9375 689.386719 303.277344 693.65625 303.277344 C 695.933594 303.277344 697.039063 305.109375 697.039063 307.160156 C 697.039063 308.769531 696.707031 310.324219 696.542969 311.765625 L 696.652344 311.875 C 698.207031 308.546875 700.480469 303.277344 704.863281 303.277344 C 707.082031 303.277344 708.800781 304.722656 708.800781 306.996094 C 708.800781 308.992188 707.414063 310.269531 705.472656 310.269531 C 703.085938 310.269531 703.199219 307.992188 701.867188 307.992188 C 698.871094 307.992188 695.433594 318.753906 694.601563 321.25 Z M 692.605469 327.183594 "/>
<path style=" stroke:none;fill-rule:nonzero;fill:rgb(13.729858%,12.159729%,12.548828%);fill-opacity:1;" d="M 714.402344 320.972656 C 714.402344 322.582031 715.179688 324.578125 717.066406 324.578125 C 722.113281 324.578125 725.496094 313.484375 725.496094 309.492188 C 725.496094 307.71875 724.496094 306.328125 722.554688 306.328125 C 717.671875 306.328125 714.402344 317.035156 714.402344 320.972656 M 728.046875 303.335938 L 733.816406 303.335938 L 729.65625 318.199219 C 729.378906 319.140625 728.769531 321.414063 728.769531 322.304688 C 728.769531 322.96875 729.046875 324.246094 729.820313 324.246094 C 731.542969 324.246094 733.148438 320.527344 733.925781 319.253906 L 735.089844 319.75 C 733.59375 323.246094 730.652344 327.90625 726.4375 327.90625 C 724.332031 327.90625 722.886719 326.242188 722.886719 324.191406 L 723.054688 322.191406 L 722.945313 322.082031 C 721.28125 325.1875 718.394531 327.90625 714.625 327.90625 C 709.964844 327.90625 707.746094 324.191406 707.746094 319.863281 C 707.746094 312.707031 713.347656 303.277344 721.335938 303.277344 C 723.941406 303.277344 725.828125 304.554688 726.828125 306.886719 Z M 728.046875 303.335938 "/>
<path style=" stroke:none;fill-rule:nonzero;fill:rgb(13.729858%,12.159729%,12.548828%);fill-opacity:1;" d="M 744.464844 292.90625 C 744.464844 290.910156 746.070313 289.355469 748.070313 289.355469 C 750.011719 289.355469 751.5625 290.964844 751.5625 292.90625 C 751.5625 294.792969 750.011719 296.457031 748.070313 296.457031 C 746.070313 296.457031 744.464844 294.902344 744.464844 292.90625 M 751.398438 319.75 C 749.679688 323.246094 746.460938 327.90625 742.136719 327.90625 C 739.640625 327.90625 738.140625 326.1875 738.140625 323.691406 C 738.140625 321.695313 738.972656 319.308594 739.640625 317.421875 L 740.859375 313.816406 C 741.304688 312.597656 742.578125 309.15625 742.578125 307.992188 C 742.578125 307.21875 742.136719 306.605469 741.359375 306.605469 C 739.75 306.605469 737.585938 310.15625 736.808594 311.488281 L 735.757813 310.878906 C 737.695313 307.550781 740.636719 303.277344 744.90625 303.277344 C 747.183594 303.277344 748.957031 304.664063 748.957031 307.105469 C 748.957031 308.9375 748.125 311.210938 747.570313 312.984375 L 745.351563 319.695313 C 745.074219 320.527344 744.519531 321.972656 744.519531 322.859375 C 744.519531 323.523438 745.074219 324.246094 745.796875 324.246094 C 747.734375 324.246094 749.402344 320.640625 750.34375 319.253906 Z M 751.398438 319.75 "/>
<path style=" stroke:none;fill-rule:nonzero;fill:rgb(13.729858%,12.159729%,12.548828%);fill-opacity:1;" d="M 755.613281 318.367188 C 756.332031 315.871094 757.886719 310.933594 757.886719 308.4375 C 757.886719 307.828125 757.609375 306.941406 756.832031 306.941406 C 755.335938 306.941406 753.726563 310.378906 753.117188 311.597656 L 752.007813 311.15625 C 753.503906 307.605469 756 303.277344 760.328125 303.277344 C 762.769531 303.277344 763.878906 304.722656 763.878906 307.105469 L 763.597656 310.269531 L 763.433594 311.320313 L 763.542969 311.433594 C 765.375 307.492188 768.757813 303.277344 773.527344 303.277344 C 776.355469 303.277344 778.019531 304.832031 778.019531 307.605469 C 778.019531 309.4375 777.246094 312.097656 776.691406 313.871094 L 775.636719 317.089844 C 775.246094 318.253906 773.804688 321.972656 773.804688 323.078125 C 773.804688 323.578125 774.195313 324.300781 774.75 324.300781 C 776.300781 324.300781 778.132813 320.695313 778.796875 319.640625 L 779.90625 320.25 C 778.296875 323.523438 775.523438 327.90625 771.421875 327.90625 C 769.089844 327.90625 767.425781 326.296875 767.425781 323.96875 C 767.425781 322.414063 768.316406 319.363281 768.8125 317.8125 L 769.921875 314.484375 C 770.367188 313.097656 771.753906 309.269531 771.753906 307.992188 C 771.753906 307.273438 771.253906 306.605469 770.53125 306.605469 C 765.707031 306.71875 762.710938 316.703125 761.492188 320.140625 L 759.050781 327.183594 L 753.226563 327.183594 Z M 755.613281 318.367188 "/>
<path style=" stroke:none;fill-rule:nonzero;fill:rgb(13.729858%,12.159729%,12.548828%);fill-opacity:1;" d="M 788.835938 292.90625 C 788.835938 290.910156 790.445313 289.355469 792.441406 289.355469 C 794.382813 289.355469 795.9375 290.964844 795.9375 292.90625 C 795.9375 294.792969 794.382813 296.457031 792.441406 296.457031 C 790.445313 296.457031 788.835938 294.902344 788.835938 292.90625 M 795.769531 319.75 C 794.050781 323.246094 790.835938 327.90625 786.507813 327.90625 C 784.011719 327.90625 782.515625 326.1875 782.515625 323.691406 C 782.515625 321.695313 783.347656 319.308594 784.011719 317.421875 L 785.230469 313.816406 C 785.675781 312.597656 786.953125 309.15625 786.953125 307.992188 C 786.953125 307.21875 786.507813 306.605469 785.730469 306.605469 C 784.121094 306.605469 781.960938 310.15625 781.183594 311.488281 L 780.128906 310.878906 C 782.070313 307.550781 785.011719 303.277344 789.28125 303.277344 C 791.554688 303.277344 793.332031 304.664063 793.332031 307.105469 C 793.332031 308.9375 792.5 311.210938 791.941406 312.984375 L 789.726563 319.695313 C 789.445313 320.527344 788.894531 321.972656 788.894531 322.859375 C 788.894531 323.523438 789.445313 324.246094 790.167969 324.246094 C 792.109375 324.246094 793.773438 320.640625 794.714844 319.253906 Z M 795.769531 319.75 "/>
<path style=" stroke:none;fill-rule:nonzero;fill:rgb(13.729858%,12.159729%,12.548828%);fill-opacity:1;" d="M 813.796875 307.21875 C 813.796875 305.941406 813.074219 304.941406 811.746094 304.941406 C 807.75 304.941406 805.699219 312.707031 804.921875 315.757813 C 808.636719 314.648438 813.796875 311.597656 813.796875 307.21875 M 816.460938 320.695313 C 813.90625 324.46875 810.359375 327.90625 805.589844 327.90625 C 800.539063 327.90625 797.601563 324.742188 797.601563 319.640625 C 797.601563 311.378906 803.703125 303.277344 812.300781 303.277344 C 815.183594 303.277344 819.066406 304.445313 819.066406 307.9375 C 819.066406 314.207031 809.25 316.3125 804.421875 317.535156 C 804.257813 318.589844 804.089844 319.640625 804.089844 320.695313 C 804.089844 322.859375 805.253906 324.855469 807.640625 324.855469 C 810.746094 324.855469 813.242188 321.859375 815.070313 319.640625 Z M 816.460938 320.695313 "/>
<path style=" stroke:none;fill-rule:nonzero;fill:rgb(13.729858%,12.159729%,12.548828%);fill-opacity:1;" d="M 822.171875 318.367188 C 822.894531 315.871094 824.445313 310.933594 824.445313 308.4375 C 824.445313 307.828125 824.167969 306.941406 823.394531 306.941406 C 821.894531 306.941406 820.285156 310.378906 819.675781 311.597656 L 818.566406 311.15625 C 820.066406 307.605469 822.5625 303.277344 826.886719 303.277344 C 829.328125 303.277344 830.4375 304.722656 830.4375 307.105469 L 830.160156 310.269531 L 829.992188 311.320313 L 830.105469 311.433594 C 831.933594 307.492188 835.316406 303.277344 840.085938 303.277344 C 842.917969 303.277344 844.582031 304.832031 844.582031 307.605469 C 844.582031 309.4375 843.804688 312.097656 843.25 313.871094 L 842.195313 317.089844 C 841.808594 318.253906 840.363281 321.972656 840.363281 323.078125 C 840.363281 323.578125 840.753906 324.300781 841.308594 324.300781 C 842.859375 324.300781 844.691406 320.695313 845.355469 319.640625 L 846.464844 320.25 C 844.859375 323.523438 842.085938 327.90625 837.980469 327.90625 C 835.652344 327.90625 833.984375 326.296875 833.984375 323.96875 C 833.984375 322.414063 834.875 319.363281 835.375 317.8125 L 836.484375 314.484375 C 836.925781 313.097656 838.3125 309.269531 838.3125 307.992188 C 838.3125 307.273438 837.8125 306.605469 837.09375 306.605469 C 832.265625 306.71875 829.273438 316.703125 828.050781 320.140625 L 825.609375 327.183594 L 819.789063 327.183594 Z M 822.171875 318.367188 "/>
<path style=" stroke:none;fill-rule:nonzero;fill:rgb(12.626648%,33.805847%,68.193054%);fill-opacity:1;" d="M 157.558594 186.675781 C 157.558594 186.675781 140.710938 158.300781 142.484375 134.800781 C 144.257813 111.300781 147.804688 101.546875 147.363281 90.019531 C 146.917969 78.488281 142.039063 66.960938 142.039063 66.960938 C 142.039063 66.960938 131.84375 50.113281 133.175781 41.6875 C 134.503906 33.265625 143.816406 8.433594 153.125 10.652344 C 162.4375 12.867188 157.117188 23.953125 157.117188 23.953125 C 157.117188 23.953125 150.023438 48.78125 154.011719 60.753906 C 158.003906 72.726563 174.410156 93.121094 172.191406 114.847656 C 169.976563 136.574219 163.324219 149.875 163.324219 149.875 C 163.324219 149.875 153.570313 166.726563 157.558594 186.675781 "/>
<path style=" stroke:none;fill-rule:nonzero;fill:rgb(12.626648%,33.805847%,68.193054%);fill-opacity:1;" d="M 145.589844 196.429688 C 145.589844 196.429688 141.597656 173.816406 126.964844 156.96875 C 112.335938 140.121094 99.476563 124.601563 101.25 114.402344 C 103.023438 104.207031 118.097656 94.007813 118.097656 94.007813 C 118.097656 94.007813 119.429688 114.402344 129.625 129.480469 C 139.824219 144.554688 145.589844 186.234375 145.589844 196.429688 "/>
<path style=" stroke:none;fill-rule:nonzero;fill:rgb(12.626648%,33.805847%,68.193054%);fill-opacity:1;" d="M 112.554688 225.695313 C 112.554688 225.695313 100.140625 213.058594 98.144531 188.007813 C 96.152344 162.957031 84.402344 133.914063 71.984375 123.492188 C 71.984375 123.492188 44.496094 105.09375 38.953125 87.359375 C 33.410156 69.621094 32.082031 52.109375 25.875 51.886719 C 19.664063 51.664063 15.230469 62.527344 15.675781 70.953125 C 16.117188 79.375 17.226563 89.128906 28.535156 102.210938 C 28.535156 102.210938 54.914063 126.820313 61.121094 145.21875 C 67.328125 163.621094 69.324219 177.144531 79.300781 191.554688 C 89.277344 205.964844 103.6875 222.8125 112.554688 225.695313 "/>
<path style=" stroke:none;fill-rule:nonzero;fill:rgb(12.626648%,33.805847%,68.193054%);fill-opacity:1;" d="M 111.226563 250.96875 C 111.226563 250.96875 93.269531 221.039063 74.203125 213.503906 C 55.136719 205.964844 23.214844 188.007813 24.765625 173.816406 C 26.316406 159.628906 32.523438 150.984375 32.523438 150.984375 C 32.523438 150.984375 36.515625 166.28125 51.589844 177.367188 C 66.664063 188.449219 93.710938 207.074219 111.226563 250.96875 "/>
<path style=" stroke:none;fill-rule:nonzero;fill:rgb(99.575806%,89.863586%,0.846863%);fill-opacity:1;" d="M 128.054688 46.675781 C 128.054688 46.675781 113.367188 60.753906 115.816406 71.460938 C 118.261719 82.171875 124.6875 93.492188 127.75 98.390625 C 127.75 98.390625 135.707031 111.242188 136.929688 116.75 C 136.929688 116.75 145.191406 101.144531 142.132813 89.820313 C 139.070313 78.5 127.75 61.671875 128.054688 46.675781 "/>
<path style=" stroke:none;fill-rule:nonzero;fill:rgb(99.575806%,89.863586%,0.846863%);fill-opacity:1;" d="M 17.285156 101.753906 C 17.285156 101.753906 10.554688 119.199219 19.121094 130.210938 C 27.691406 141.226563 47.886719 155.917969 47.886719 155.917969 C 47.886719 155.917969 58.289063 162.953125 59.511719 165.09375 C 59.511719 165.09375 59.207031 140.617188 42.683594 127.765625 C 26.160156 114.914063 17.285156 101.753906 17.285156 101.753906 "/>
<path style=" stroke:none;fill-rule:nonzero;fill:rgb(99.575806%,89.863586%,0.846863%);fill-opacity:1;" d="M 47.273438 207.015625 C 47.273438 207.015625 44.796875 225.867188 58.289063 234.863281 C 72.976563 244.652344 83.6875 248.632813 102.046875 253.222656 C 102.046875 253.222656 98.375 235.472656 81.851563 225.683594 C 65.328125 215.890625 55.230469 212.832031 47.273438 207.015625 "/>
<path style=" stroke:none;fill-rule:nonzero;fill:rgb(12.626648%,33.805847%,68.193054%);fill-opacity:1;" d="M 120.757813 166.722656 C 111.890625 159.628906 107.457031 144.554688 107.457031 144.554688 C 95.929688 160.074219 107.171875 175.207031 107.171875 175.207031 C 107.171875 175.207031 109.097656 171.097656 113.695313 173.183594 C 115.703125 174.089844 124.347656 179.519531 127.730469 182.390625 C 132.066406 186.0625 132.757813 186.675781 134.417969 188.539063 C 134.417969 188.539063 129.625 173.816406 120.757813 166.722656 "/>
<path style=" stroke:none;fill-rule:nonzero;fill:rgb(100%,100%,100%);fill-opacity:1;" d="M 136.085938 190.675781 C 139.632813 195.410156 144.378906 202.023438 147.117188 206.542969 C 153.710938 217.4375 159.039063 203.082031 159.039063 203.082031 C 159.039063 203.082031 178.65625 149.617188 205.582031 149.617188 C 232.507813 149.617188 237.507813 188.851563 237.507813 188.851563 C 196.519531 173.730469 197.355469 239.550781 198.351563 252.1875 C 199.347656 264.824219 193.695313 272.140625 188.375 280.121094 C 183.054688 288.101563 163.765625 302.734375 148.136719 302.402344 C 132.507813 302.070313 131.84375 323.019531 131.84375 323.019531 C 131.84375 330.335938 130.511719 337.316406 129.515625 339.976563 C 128.519531 342.640625 116.878906 359.265625 110.558594 362.921875 C 104.242188 366.582031 103.578125 353.945313 103.910156 348.957031 C 104.242188 343.96875 99.917969 341.972656 99.585938 353.28125 C 99.253906 364.585938 86.949219 379.882813 81.960938 380.546875 C 76.972656 381.214844 76.640625 367.910156 76.308594 363.253906 C 75.976563 358.601563 72.652344 358.933594 70.65625 366.25 C 68.660156 373.566406 56.355469 383.207031 52.699219 383.207031 C 49.039063 383.207031 55.027344 367.578125 55.027344 367.578125 C 55.027344 367.578125 58.683594 359.597656 56.6875 358.601563 C 54.695313 357.601563 47.046875 366.25 41.722656 370.570313 C 36.40625 374.894531 20.109375 373.566406 19.445313 370.238281 C 18.78125 366.914063 27.757813 360.929688 36.738281 357.9375 C 45.714844 354.941406 55.953125 350.402344 55.953125 350.402344 C 112.496094 300.011719 121.34375 256.546875 122.496094 248.085938 C 123.652344 239.621094 110.1875 210.773438 108.265625 189.617188 C 108.265625 189.617188 106.636719 178.382813 107.457031 175.148438 C 107.457031 175.148438 109.492188 171.371094 114.09375 173.457031 C 114.09375 173.457031 129.011719 181.234375 136.085938 190.675781 "/>
<path style="fill:none;stroke-width:2;stroke-linecap:butt;stroke-linejoin:miter;stroke:rgb(12.626648%,33.805847%,68.193054%);stroke-opacity:1;stroke-miterlimit:4;" d="M 0.0005375 -0.00008125 C 3.547412 -4.734456 8.293506 -11.347738 11.031787 -15.867269 C 17.625537 -26.7618 22.953662 -12.406331 22.953662 -12.406331 C 22.953662 -12.406331 42.57085 41.058512 69.496631 41.058512 C 96.422412 41.058512 101.422412 1.824137 101.422412 1.824137 C 60.434131 16.945231 61.270069 -48.875081 62.266162 -61.5118 C 63.262256 -74.148519 57.609912 -81.464925 52.2896 -89.445394 C 46.969287 -97.425863 27.680225 -112.058675 12.051319 -111.726644 C -3.577588 -111.394613 -4.24165 -132.343831 -4.24165 -132.343831 C -4.24165 -139.660238 -5.573681 -146.640706 -6.569775 -149.300863 C -7.565869 -151.964925 -19.206494 -168.589925 -25.526806 -172.246175 C -31.843213 -175.906331 -32.507275 -163.269613 -32.175244 -158.281331 C -31.843213 -153.29305 -36.167431 -151.296956 -36.499463 -162.60555 C -36.831494 -173.910238 -49.136181 -189.207113 -54.124463 -189.871175 C -59.112744 -190.539144 -59.444775 -177.234456 -59.776806 -172.578206 C -60.108838 -167.925863 -63.433056 -168.257894 -65.42915 -175.5743 C -67.425244 -182.890706 -79.729931 -192.531331 -83.386181 -192.531331 C -87.046338 -192.531331 -81.058056 -176.902425 -81.058056 -176.902425 C -81.058056 -176.902425 -77.401806 -168.921956 -79.3979 -167.925863 C -81.390088 -166.925863 -89.038525 -175.5743 -94.362744 -179.894613 C -99.67915 -184.218831 -115.976025 -182.890706 -116.640088 -179.562581 C -117.30415 -176.238363 -108.327588 -170.253988 -99.347119 -167.2618 C -90.370556 -164.265706 -80.132275 -159.726644 -80.132275 -159.726644 C -23.589306 -109.336019 -14.74165 -65.871175 -13.589306 -57.410238 C -12.433056 -48.945394 -25.8979 -20.097738 -27.819775 1.058512 C -27.819775 1.058512 -29.448681 12.292887 -28.628369 15.527262 C -28.628369 15.527262 -26.593213 19.304606 -21.99165 17.218669 C -21.99165 17.218669 -7.073681 9.441325 0.0005375 -0.00008125 Z M 0.0005375 -0.00008125 " transform="matrix(1,0,0,-1,136.0854,190.6757)"/>
<path style=" stroke:none;fill-rule:nonzero;fill:rgb(99.575806%,89.863586%,0.846863%);fill-opacity:1;" d="M 326.828125 133.492188 C 326.839844 133.492188 326.839844 133.503906 326.847656 133.507813 C 327.914063 133.78125 328.855469 133.890625 329.679688 133.890625 C 330.976563 133.890625 331.96875 133.613281 332.707031 133.289063 C 359.949219 134.929688 359.652344 112.230469 359.652344 112.230469 C 358.203125 114.820313 351.363281 115.652344 351.363281 115.652344 C 338.285156 119.015625 333.210938 130.628906 332.335938 132.882813 C 331.226563 133.328125 329.515625 133.632813 327.144531 133.050781 C 332.078125 126.121094 333.859375 121.527344 333.859375 121.527344 C 330.433594 127.65625 326.355469 133.257813 321.84375 138.390625 C 321.253906 137.425781 320.746094 135.472656 320.40625 133.914063 C 321.410156 132.644531 325.355469 127.214844 325.355469 120.417969 C 325.355469 112.542969 319.347656 108.398438 317.066406 107.050781 C 314.785156 105.703125 309.914063 99.898438 309.914063 99.898438 C 309.914063 99.898438 305.320313 124.144531 319.90625 134.007813 C 320.265625 135.667969 320.828125 137.78125 321.5 138.785156 C 314.71875 146.421875 306.957031 152.988281 298.832031 158.558594 C 297.414063 157.910156 297.027344 156.175781 296.980469 154.707031 C 300.261719 151.667969 317.097656 134.355469 298.234375 114.847656 C 298.234375 114.847656 297.3125 121.789063 295.117188 126.875 C 292.945313 131.914063 287.65625 140.449219 296.214844 154.78125 C 296.269531 156.3125 296.675781 158.136719 298.117188 159.039063 C 291.589844 163.457031 284.847656 167.238281 278.214844 170.4375 C 278.078125 169.074219 278.070313 166.800781 278.101563 164.875 C 281.109375 160.933594 295.476563 139.796875 272.214844 122.722656 C 272.214844 122.722656 272.492188 130.199219 271.097656 135.949219 C 269.71875 141.621094 265.71875 151.484375 277.085938 164.933594 C 277.054688 166.917969 277.0625 169.460938 277.25 170.898438 C 269.9375 174.367188 262.78125 177.121094 256.21875 179.230469 C 254.808594 177.941406 254.351563 175.503906 254.21875 173.75 C 273.316406 151.535156 251.679688 132.230469 251.679688 132.230469 C 251.578125 137.308594 249.089844 142.800781 249.089844 142.800781 C 242.558594 161.335938 250.460938 171.222656 252.945313 173.742188 C 253.074219 175.519531 253.511719 178.003906 254.878906 179.65625 C 252.199219 180.492188 249.628906 181.21875 247.195313 181.835938 C 221.46875 188.375 219.148438 221.058594 219.148438 221.058594 L 225.054688 222.957031 C 226.316406 189.21875 251.199219 183.945313 251.199219 183.945313 C 255.0625 182.671875 258.746094 181.332031 262.273438 179.945313 C 263.535156 180.441406 264.910156 181.3125 265.941406 182.042969 C 266.410156 186.574219 270.324219 208.929688 301.832031 204.453125 C 301.832031 204.453125 296.445313 200.414063 292.820313 193.886719 C 289.511719 187.933594 283.628906 180.921875 266.976563 181.21875 C 266.148438 180.621094 265.046875 179.882813 263.90625 179.300781 C 270.84375 176.507813 277.128906 173.53125 282.820313 170.449219 C 284.496094 170.660156 286.265625 171.183594 287.679688 171.691406 C 289.527344 175.050781 303.597656 198.421875 330.0625 183.523438 C 330.0625 183.523438 322.894531 180.78125 318.042969 177.195313 C 313.300781 173.691406 305.730469 166.160156 288.636719 170.957031 C 287.429688 170.5 285.871094 169.984375 284.273438 169.65625 C 292.703125 164.992188 299.792969 160.121094 305.738281 155.34375 C 305.75 155.351563 305.761719 155.363281 305.777344 155.371094 C 308.597656 156.601563 311.265625 156.914063 313.242188 156.914063 C 313.699219 156.914063 314.117188 156.894531 314.496094 156.867188 C 318.621094 158.652344 341.644531 167.515625 350.121094 147.359375 C 350.121094 147.359375 345.769531 148.085938 339.65625 146.738281 C 333.625 145.410156 321.753906 144.996094 314.171875 156.117188 C 312.304688 156.210938 309.445313 156.054688 306.40625 154.804688 C 316.023438 146.964844 322.558594 139.414063 326.828125 133.492188 "/>
<path style=" stroke:none;fill-rule:nonzero;fill:rgb(99.575806%,89.863586%,0.846863%);fill-opacity:1;" d="M 342.039063 99.640625 C 343.179688 89.074219 333.957031 79.226563 333.957031 79.226563 C 333.957031 79.226563 319.96875 95.082031 335.097656 114.460938 C 335.097656 114.460938 340.898438 110.210938 342.039063 99.640625 "/>
</g>
</svg>
